<svg xmlns="http://www.w3.org/2000/svg" xml:space="preserve" width="154.96208" height="99.999619" viewBox="0 0 154.96208 99.999618"><path d="M62.175 0H82.1v19.927zM131.962 52.34H112.32a9.14 9.14 0 0 1-9.141-9.141v-.004a9.14 9.14 0 0 1 9.138-9.138h26.785l14.133-14.13H112.32a23.274 23.274 0 0 0 0 46.55h19.642a9.14 9.14 0 1 1 0 18.279H82.1L67.962 98.892h64a23.278 23.278 0 0 0 0-46.552M23.271 34.058h24.637l14.136-14.133h-38.77A23.28 23.28 0 0 0 0 43.203v55.69h14.133v-32.42h33.775l14.136-14.132H14.133v-9.145a9.14 9.14 0 0 1 9.138-9.138" style="fill:#05256f;fill-opacity:1;fill-rule:nonzero;stroke:none;stroke-width:3.3145"/><path d="M67.677 35.168V100L81.81 85.863V21.032z" style="fill:#30a8e1;fill-opacity:1;fill-rule:nonzero;stroke:none;stroke-width:3.3145"/></svg>