<svg xmlns="http://www.w3.org/2000/svg" xml:space="preserve" width="389.28" height="275.84" viewBox="0 0 389.28 275.84"><defs><clipPath id="a" clipPathUnits="userSpaceOnUse"><path d="M0 0h291.96v206.88H0Z" style="clip-rule:evenodd"/></clipPath></defs><g clip-path="url(#a)" transform="matrix(1.33333 0 0 -1.33333 0 275.84)"><path d="m292 .005-82.31 43.812h-.36V206.93H.106V43.721h.19L82.412.005Z" style="fill:#000;fill-opacity:1;fill-rule:evenodd;stroke:none"/></g><path d="M20.525 77.347h4.269l4.297-7.203 4.326 7.203h4.269l-6.689-11.024v-9.767h-3.869v9.853h.01zm2.716 27.503h11.767v-3.71h-7.889v-4.783h7.889V92.65h-7.889v-8.604h-3.878v20.794zm5.888 22.01-2.734-7.89h5.469zm-1.963 5.5h3.907l7.404-20.8h-4.04l-1.287 3.71h-8.061l-1.286-3.71h-4.04zm2.221 27.79c3.363 0 5.297-1.29 6.974-3.02l-3.192-2.42c-.886 1.31-2.105 1.99-3.763 1.99-1.878 0-2.907-1.03-2.907-2.36 0-1.65 1.992-2.19 4.241-2.94 2.82-.91 6.012-2.16 6.012-6.15 0-3.28-2.62-6.47-7.175-6.47-3.764 0-6.241 1.59-8.118 3.73h.009l3.535 2.79c1.058-1.79 2.678-2.82 4.555-2.82 2.049 0 3.164 1.35 3.164 2.8 0 1.76-2.106 2.3-4.326 2.99-2.792.88-5.899 1.96-5.899 5.92 0 3.34 2.907 5.96 6.89 5.96m0 27.5c3.363 0 5.297-1.29 6.974-3.02l-3.192-2.42c-.886 1.31-2.105 1.99-3.763 1.99-1.878 0-2.907-1.03-2.907-2.36 0-1.65 1.992-2.2 4.241-2.94 2.82-.91 6.012-2.16 6.012-6.15 0-3.28-2.62-6.47-7.175-6.47-3.764 0-6.241 1.59-8.118 3.73h.009l3.535 2.79c1.058-1.79 2.678-2.82 4.555-2.82 2.049 0 3.164 1.35 3.164 2.79 0 1.77-2.106 2.31-4.326 3-2.792.88-5.899 1.96-5.899 5.92 0 3.34 2.907 5.96 6.89 5.96" style="fill:#00baf7;fill-opacity:1;fill-rule:evenodd;stroke:none" transform="matrix(1.33333 0 0 -1.33333 0 275.84)"/><path d="M50.263 73.803c-3.783 0-6.774-3.078-6.774-6.861s2.991-6.86 6.774-6.86 6.804 3.078 6.804 6.86c0 3.793-3.021 6.861-6.804 6.861m46.261 3.535h3.876v-8.519h7.98v8.519h3.88V56.547h-3.88v8.575h-7.98v-8.575h-3.876Zm-16.951.009H94.58v-3.706h-5.584V56.547h-3.878v17.094h-5.545zm-16.894 0h3.878V63.503c0-2.049 1.534-3.65 3.592-3.65s3.65 1.591 3.65 3.65v13.844h3.878V63.731c0-4.897-3.192-7.46-7.49-7.46-4.297 0-7.489 2.563-7.489 7.46h-.019zm-12.416.277c5.898 0 10.653-4.783 10.653-10.682 0-5.898-4.726-10.681-10.653-10.681-5.926 0-10.624 4.755-10.624 10.681 0 5.899 4.726 10.682 10.624 10.682m16.322 23.616v-7.265h2.449v-.01c3.192 0 4.241 1.734 4.241 3.792 0 2.059-1.277 3.483-4.241 3.483zm-16.322.07c-3.783 0-6.774-3.076-6.774-6.859s2.991-6.86 6.774-6.86 6.804 3.077 6.804 6.86c0 3.792-3.021 6.859-6.804 6.859m12.444 3.54h6.661c4.926 0 7.775-2.94 7.775-7.236 0-2.506-1.258-4.84-3.506-6.069l4.154-7.49h-4.412l-3.335 6.356h-3.478v-6.356h-3.859zm-12.444.28c5.898 0 10.653-4.78 10.653-10.679 0-5.898-4.726-10.681-10.653-10.681-5.926 0-10.624 4.754-10.624 10.681 0 5.899 4.726 10.679 10.624 10.679m54.827 21.73-2.73-7.89h5.46zm-40.706 0-2.734-7.89h5.469zm55.556 1.89v-13.6h1.5c4.53 0 7.4 2.93 7.4 6.8s-2.44 6.8-7.57 6.8zm50.99 3.61h4.27l4.3-7.21 4.32 7.21h4.27l-6.69-11.03v-9.77h-3.87v9.86zm-21.91 0h3.85l6.29-8.75 6.55 8.75h3.68v-20.8h-3.88v14.58l-6.38-8.6-6.25 8.46v-14.45h-3.87v20.8zm-14.51 0h12.33v-3.71h-8.46v-4.78h8.46v-3.71h-8.46v-4.9h8.46v-3.71h-12.33v20.8zm-18.45 0h5.67c7 0 10.99-4.5 10.99-10.4s-4.5-10.4-10.82-10.4h-5.84zm-12.94 0h3.9l7.41-20.8h-4.04l-1.29 3.71h-8.06l-1.286-3.71h-4.04zm-40.699 0h3.907l7.404-20.8h-4.04l-1.287 3.71h-8.061l-1.286-3.71h-4.04zm-19.923 0h3.849l.029-20.8h-3.878zm43.078.27c3.906 0 7.289-2.05 9.118-5.15l-3.392-2.17c-1.2 2.17-3.049 3.51-5.726 3.51-3.926 0-6.832-2.99-6.832-6.86s2.877-6.8 6.746-6.8c2.878 0 4.898 1.64 5.984 3.9l3.535-1.85c-1.82-3.53-5.298-5.92-9.424-5.92-6.412 0-10.681 4.75-10.681 10.68l-.01-.02c0 6.21 4.669 10.68 10.682 10.68m-44.984 27.22h4.04l3.926-14.55 4.354 14.55h3.821l4.326-14.5 3.907 14.5h3.906l-5.869-20.79h-3.85l-4.354 14.67-4.355-14.67h-3.925zm94.568 17.13v-.02zm-86.154 4.88-2.735-7.88h5.469zm49.719 5.5h3.875v-13.84c0-2.05 1.54-3.65 3.6-3.65 2.05 0 3.64 1.59 3.64 3.65v13.84h3.88v-13.61c0-4.9-3.19-7.46-7.49-7.46-4.29 0-7.486 2.56-7.486 7.46h-.019zm-38.752 0h3.849l6.298-8.74 6.556 8.74h3.678v-20.79h-3.878v14.58l-6.384-8.6-6.241 8.46v-14.45h-3.878v20.79zm-12.93 0h3.906l7.404-20.79h-4.04l-1.287 3.71h-8.061l-1.286-3.71h-4.04zm69.037 0h4.37l9-14.16v14.16h3.88v-20.79h-4.12l-9.26 14.61v-14.61h-3.87zm29.71.28c4.29 0 7.69-2.19 9.45-5.33l-3.42-2.05c-1.28 2.37-3.28 3.62-6.02 3.62-3.87 0-6.8-3.13-6.8-6.91 0-3.79 2.91-6.92 6.95-6.92 3.1 0 5.27 1.76 6.01 4.5h-6.63v3.7h10.79v-1.53c0-5.61-3.95-10.42-10.16-10.42-4.66 0-8.4 2.77-9.99 6.58l-.81 4.09.8 4.16c1.54 3.83 5.21 6.51 9.83 6.51m-56.27.01c3.364 0 5.298-1.29 6.975-3.02l-3.192-2.42c-.886 1.31-2.106 1.99-3.764 1.99-1.877 0-2.906-1.03-2.906-2.36 0-1.65 1.992-2.2 4.24-2.94 2.821-.91 6.013-2.16 6.013-6.15 0-3.28-2.62-6.47-7.175-6.47-3.764 0-6.241 1.59-8.118 3.73h.009l3.535 2.79c1.058-1.79 2.678-2.82 4.555-2.82 2.048 0 3.163 1.35 3.163 2.79 0 1.77-2.105 2.31-4.326 3-2.791.88-5.898 1.96-5.898 5.92 0 3.34 2.907 5.96 6.889 5.96" style="fill:#fff;fill-opacity:1;fill-rule:evenodd;stroke:none" transform="matrix(1.33333 0 0 -1.33333 0 275.84)"/></svg>